<svg width="512" height="512" viewBox="0 0 512 512" fill="none" xmlns="http://www.w3.org/2000/svg">
<path fill-rule="evenodd" clip-rule="evenodd" d="M436.885 161.67L321.984 66.6671C283.279 34.6665 228.721 34.6665 190.017 66.6671L75.1141 161.67C54.4126 178.786 42.6667 204.737 42.6667 231.814V402.643C42.6667 438.227 70.1105 469.333 106.667 469.333H149.333C184.679 469.333 213.333 440.681 213.333 405.333V334.609C213.333 320.094 224.094 310.586 234.667 310.586H277.333C287.906 310.586 298.667 320.094 298.667 334.609V405.333C298.667 440.681 327.319 469.333 362.667 469.333H405.333C441.89 469.333 469.333 438.227 469.333 402.643V231.814C469.333 204.737 457.587 178.786 436.885 161.67V161.67Z" fill="black"/>
</svg>
