<svg width="512" height="512" viewBox="0 0 512 512" fill="none" xmlns="http://www.w3.org/2000/svg">
<path d="M478.576 220L378.912 317.152L402.448 454.368C403.472 460.368 401.008 466.432 396.08 470.016C393.296 472.048 389.984 473.072 386.672 473.072C384.128 473.072 381.568 472.464 379.232 471.232L256 406.448L132.784 471.216C127.408 474.064 120.864 473.6 115.936 470C111.008 466.416 108.544 460.352 109.568 454.352L133.104 317.136L33.424 220C29.072 215.744 27.488 209.376 29.376 203.6C31.264 197.824 36.272 193.584 42.304 192.704L180.048 172.704L241.648 47.872C247.04 36.944 264.96 36.944 270.352 47.872L331.952 172.704L469.696 192.704C475.728 193.584 480.736 197.808 482.624 203.6C484.512 209.392 482.928 215.728 478.576 220Z" fill="black"/>
</svg>
