<svg width="512" height="512" viewBox="0 0 512 512" fill="none" xmlns="http://www.w3.org/2000/svg">
<path d="M470.129 62.8402C443.647 34.375 406.538 18.1787 367.658 18.1187C328.748 18.1637 291.6 34.3514 265.077 62.822L256.038 72.374L246.998 62.822C194.368 6.17789 105.783 2.92491 49.1399 55.5548C46.63 57.8878 44.2058 60.3109 41.8727 62.822C-13.9576 123.042 -13.9576 216.109 41.8727 276.328L242.753 488.17C249.703 495.507 261.285 495.821 268.622 488.871C268.862 488.644 269.096 488.41 269.323 488.17L470.13 276.328C525.956 216.115 525.956 123.054 470.129 62.8402ZM443.652 251.131H443.634L256.038 448.993L68.4241 251.131C25.7729 205.118 25.7729 134.014 68.4241 88.0009C107.156 46.021 172.588 43.3888 214.568 82.1211C216.606 84.0017 218.567 85.9627 220.448 88.0009L242.753 111.533C250.104 118.837 261.972 118.837 269.323 111.533L291.628 88.0192C330.361 46.0392 395.792 43.407 437.772 82.1393C439.81 84.0199 441.771 85.981 443.652 88.0192C486.674 134.106 486.989 205.339 443.652 251.131Z" fill="black"/>
</svg>
