<svg width="512" height="512" viewBox="0 0 512 512" fill="none" xmlns="http://www.w3.org/2000/svg">
<g clip-path="url(#clip0_6_1209)">
<path d="M505.744 475.583L360.145 329.984C388.348 295.148 405.329 250.881 405.329 202.669C405.329 90.9256 314.407 0.00354004 202.664 0.00354004C90.9211 0.00354004 0 90.9247 0 202.668C0 314.41 90.9221 405.333 202.665 405.333C250.878 405.333 295.144 388.352 329.981 360.149L475.579 505.748C479.739 509.908 485.2 511.999 490.662 511.999C496.124 511.999 501.585 509.908 505.745 505.748C514.086 497.407 514.086 483.924 505.744 475.583ZM202.665 362.666C114.431 362.666 42.6666 290.902 42.6666 202.668C42.6666 114.433 114.431 42.6691 202.665 42.6691C290.899 42.6691 362.663 114.433 362.663 202.668C362.663 290.902 290.898 362.666 202.665 362.666Z" fill="black"/>
</g>
<defs>
<clipPath id="clip0_6_1209">
<rect width="512" height="512" fill="white"/>
</clipPath>
</defs>
</svg>
