<svg width="512" height="512" viewBox="0 0 512 512" fill="none" xmlns="http://www.w3.org/2000/svg">
<g clip-path="url(#clip0_93_298)">
<path d="M507.36 244.64C441.92 179.36 443.36 179.52 438.88 177.6L326.88 126.56C324.948 125.542 322.827 124.93 320.65 124.762C318.472 124.594 316.283 124.874 314.217 125.585C312.152 126.295 310.254 127.421 308.64 128.893C307.026 130.364 305.73 132.151 304.833 134.142C303.936 136.134 303.456 138.288 303.423 140.472C303.389 142.656 303.804 144.823 304.64 146.841C305.476 148.859 306.717 150.684 308.286 152.204C309.854 153.724 311.717 154.907 313.76 155.68L393.76 192L256 254.4L118.72 192L198.72 155.68C202.323 153.781 205.066 150.58 206.391 146.729C207.716 142.877 207.522 138.666 205.849 134.953C204.176 131.239 201.149 128.304 197.387 126.744C193.625 125.185 189.409 125.119 185.6 126.56C107.68 161.92 71.52 178.56 73.6 177.6C69.76 179.52 71.52 178.4 5.12 244.64C3.28658 246.475 1.92686 248.729 1.15801 251.206C0.389157 253.684 0.234235 256.311 0.706591 258.862C1.17895 261.412 2.26442 263.81 3.86946 265.848C5.47451 267.886 7.551 269.503 9.92001 270.56L185.92 350.56C188.878 351.911 192.178 352.329 195.379 351.757C198.581 351.185 201.532 349.651 203.84 347.36L240 310.56V470.56L96 405.76V352C96 347.757 94.3143 343.687 91.3137 340.686C88.3131 337.686 84.2435 336 80 336C75.7566 336 71.6869 337.686 68.6863 340.686C65.6857 343.687 64 347.757 64 352C64 422.72 64 419.2 66.88 424.64C67.8734 426.711 69.5764 428.357 71.68 429.28C73.28 430.4 71.68 430.08 73.76 430.72C265.44 517.76 251.04 512 256 512C260.96 512 248 517.12 438.56 430.56C441.367 429.298 443.751 427.253 445.425 424.671C447.1 422.088 447.994 419.078 448 416V295.36L502.56 270.56C504.929 269.503 507.006 267.886 508.611 265.848C510.216 263.81 511.301 261.412 511.773 258.862C512.246 256.311 512.091 253.684 511.322 251.206C510.553 248.729 509.193 246.475 507.36 244.64ZM188.48 316.8L44.48 251.04L83.52 211.2L228.32 276.96L188.48 316.8ZM416 405.76L272 471.2V311.2C311.36 349.92 311.2 352 320 352C325.28 352 321.12 353.12 416 309.92V405.76ZM323.52 316.8L283.68 276.96L428.48 211.2L468.32 251.04L323.52 316.8Z" fill="black"/>
<path d="M240 142.56C240.209 132.014 243.301 121.726 248.943 112.813C254.584 103.9 262.558 96.7023 272 92C277.897 88.7485 282.617 83.7198 285.49 77.6296C288.363 71.5395 289.241 64.6983 288 58.08C287.235 53.7309 285.577 49.5873 283.133 45.9099C280.688 42.2325 277.508 39.1009 273.794 36.7122C270.08 34.3234 265.912 32.7292 261.552 32.0299C257.192 31.3306 252.734 31.5413 248.459 32.6488C244.184 33.7563 240.185 35.7365 236.713 38.4649C233.241 41.1933 230.371 44.6109 228.284 48.5025C226.197 52.3941 224.938 56.6756 224.586 61.0774C224.234 65.4793 224.797 69.9064 226.24 74.08C227.632 78.049 227.405 82.4063 225.608 86.2092C223.812 90.0121 220.59 92.9546 216.64 94.4C214.655 95.1096 212.549 95.4199 210.443 95.3131C208.338 95.2062 206.274 94.6843 204.371 93.7773C202.468 92.8703 200.763 91.5962 199.354 90.0281C197.945 88.46 196.859 86.6289 196.16 84.64C192.086 73.1258 191.393 60.6863 194.16 48.7905C196.928 36.8947 203.042 26.0392 211.78 17.5059C220.518 8.97263 231.516 3.11784 243.474 0.63287C255.432 -1.8521 267.852 -0.863476 279.266 3.48201C290.68 7.82749 300.613 15.3484 307.891 25.1566C315.169 34.9648 319.489 46.6508 320.34 58.8347C321.191 71.0186 318.538 83.1916 312.694 93.9164C306.85 104.641 298.059 113.47 287.36 119.36C282.916 121.443 279.131 124.71 276.422 128.803C273.712 132.895 272.183 137.655 272 142.56C272 146.803 270.314 150.873 267.314 153.874C264.313 156.874 260.243 158.56 256 158.56C251.757 158.56 247.687 156.874 244.686 153.874C241.686 150.873 240 146.803 240 142.56Z" fill="black"/>
<path d="M256 208C252.835 208 249.742 207.062 247.111 205.304C244.48 203.545 242.429 201.047 241.218 198.123C240.007 195.199 239.69 191.982 240.307 188.879C240.925 185.775 242.449 182.924 244.686 180.686C246.924 178.449 249.775 176.925 252.879 176.307C255.982 175.69 259.199 176.007 262.123 177.218C265.047 178.429 267.545 180.48 269.304 183.111C271.062 185.742 272 188.836 272 192C272 196.243 270.314 200.313 267.314 203.314C264.313 206.314 260.243 208 256 208Z" fill="black"/>
</g>
<defs>
<clipPath id="clip0_93_298">
<rect width="512" height="512" fill="white"/>
</clipPath>
</defs>
</svg>
