<svg width="512" height="512" viewBox="0 0 512 512" fill="none" xmlns="http://www.w3.org/2000/svg">
<path d="M362.667 43.9467H149.333C132 44.3386 115.529 51.5877 103.532 64.1048C91.5344 76.6218 84.9901 93.3853 85.3334 110.72V423.893C85.2896 432.415 87.7006 440.769 92.2781 447.957C96.8557 455.145 103.406 460.862 111.147 464.427C118.587 467.571 126.767 468.538 134.735 467.216C142.704 465.894 150.133 462.338 156.16 456.96L256 366.08L355.84 456.96C363.435 464.031 373.41 467.99 383.787 468.053C389.661 468.003 395.466 466.77 400.853 464.427C408.594 460.862 415.144 455.145 419.722 447.957C424.299 440.769 426.71 432.415 426.667 423.893V110.72C427.01 93.3853 420.466 76.6218 408.468 64.1048C396.471 51.5877 380 44.3386 362.667 43.9467Z" fill="black"/>
</svg>
